<?xml version="1.0" standalone="no"?>
<!DOCTYPE svg PUBLIC "-//W3C//DTD SVG 20010904//EN"
 "http://www.w3.org/TR/2001/REC-SVG-20010904/DTD/svg10.dtd">
<svg version="1.0" xmlns="http://www.w3.org/2000/svg"
 width="412.000000pt" height="606.000000pt" viewBox="0 0 412.000000 606.000000"
 preserveAspectRatio="xMidYMid meet">
<metadata>
Created by potrace 1.16, written by Peter Selinger 2001-2019
</metadata>
<g transform="translate(0.000000,606.000000) scale(0.100000,-0.100000)"
fill="#000000" stroke="none">
<path d="M2085 5661 c-16 -5 -45 -17 -64 -26 -28 -15 -48 -17 -119 -11 -61 5
-103 2 -151 -9 -36 -9 -76 -18 -88 -21 -19 -4 -22 -12 -25 -62 l-3 -57 -62 -3
c-56 -3 -62 -1 -65 18 -3 19 -7 17 -45 -19 -23 -23 -44 -41 -47 -41 -22 0
-156 -155 -156 -180 0 -6 -4 -10 -8 -10 -5 0 -16 -18 -26 -40 -10 -22 -21 -40
-26 -40 -4 0 -13 -13 -18 -30 -6 -16 -27 -57 -46 -90 -26 -44 -36 -73 -36
-103 0 -23 -9 -72 -19 -108 -19 -67 -38 -267 -44 -456 -2 -93 -1 -103 15 -103
10 0 18 7 18 15 0 11 13 15 54 15 63 0 66 -4 66 -92 l0 -61 -76 6 -76 6 6 -37
c4 -20 11 -89 17 -152 12 -126 28 -179 29 -94 l0 51 46 7 c80 11 121 7 128
-10 3 -9 6 -45 6 -80 l0 -64 -69 0 c-60 0 -69 2 -74 20 -3 11 -13 20 -22 20
-12 0 -15 -5 -11 -16 3 -9 6 -20 6 -25 0 -5 16 -9 35 -9 33 0 35 -2 35 -35 0
-20 5 -41 10 -48 6 -7 18 -23 29 -36 16 -22 25 -24 79 -22 57 2 62 1 66 -21 3
-13 12 -52 20 -88 8 -36 22 -96 31 -133 19 -87 20 -367 1 -492 -14 -95 -49
-208 -66 -213 -6 -2 -10 -21 -10 -43 0 -32 -3 -39 -20 -39 -15 0 -20 -7 -20
-25 0 -24 -3 -25 -57 -25 -32 -1 -69 -7 -83 -15 -14 -8 -44 -14 -67 -15 -43 0
-103 -22 -135 -49 -10 -7 -40 -17 -67 -22 -28 -4 -63 -17 -78 -28 -63 -45
-326 -117 -573 -157 -58 -9 -122 -23 -144 -30 -21 -8 -49 -14 -62 -14 l-24 0
0 -1110 0 -1110 1399 0 1399 0 -10 38 c-5 20 -12 64 -15 98 -5 60 -5 61 51
146 31 47 56 89 56 92 0 3 15 29 33 58 19 29 53 89 77 133 23 44 46 85 50 90
5 6 29 53 55 105 27 52 53 98 59 102 31 21 172 1 207 -29 43 -36 144 -354 173
-545 9 -58 19 -147 23 -197 l6 -91 278 0 279 0 0 885 0 885 -33 0 c-18 0 -37
4 -43 9 -14 14 -192 115 -279 158 -124 62 -322 130 -510 174 -100 23 -115 30
-165 71 -54 45 -215 108 -276 108 -55 0 -74 12 -74 47 0 14 -6 23 -15 23 -11
0 -15 11 -15 38 0 21 -6 44 -12 50 -9 9 -12 85 -11 300 2 338 10 418 48 468
57 75 89 174 115 367 8 57 17 90 26 94 9 3 14 21 14 47 0 35 4 43 31 59 17 9
41 17 54 17 18 0 24 7 27 30 4 29 4 29 -51 32 l-56 3 2 60 c5 124 15 215 23
215 5 0 10 15 12 33 3 31 5 32 53 37 l50 5 -22 20 c-19 16 -23 30 -23 75 0 30
4 70 10 89 7 26 6 37 -5 48 -24 23 -19 108 8 144 21 29 22 42 25 215 3 181 3
185 -23 239 -14 31 -35 61 -45 68 -11 6 -20 15 -20 19 0 17 -92 126 -152 180
-35 32 -88 80 -118 108 -30 27 -62 50 -70 50 -8 0 -26 12 -39 25 -13 14 -29
25 -36 25 -7 0 -15 6 -18 14 -9 23 -108 83 -173 105 -69 23 -203 35 -249 22z
m21 -525 c3 -15 20 -31 45 -42 21 -11 42 -27 45 -36 3 -11 15 -18 30 -18 13 0
24 -4 24 -10 0 -5 6 -10 13 -10 11 0 28 -47 44 -122 4 -24 10 -28 41 -28 46 0
61 -22 62 -87 0 -51 -1 -53 -27 -54 -27 -1 -27 -1 5 -10 31 -9 32 -11 32 -69
0 -33 -4 -60 -9 -60 -4 0 -25 -16 -45 -35 -22 -20 -48 -35 -62 -35 -13 0 -33
-9 -44 -20 -10 -10 -34 -23 -52 -28 -30 -7 -33 -12 -36 -51 -4 -60 -19 -71
-92 -71 -63 0 -90 13 -90 44 0 9 -4 16 -10 16 -5 0 -10 9 -10 19 0 21 -19 31
-56 31 -13 0 -24 5 -24 10 0 6 -7 10 -15 10 -8 0 -15 5 -15 10 0 6 -13 10 -29
10 -68 0 -101 41 -101 124 0 38 -15 56 -47 56 -21 0 -23 4 -23 55 l0 55 45 0
c41 0 45 2 45 25 0 15 6 25 14 25 12 0 13 14 9 73 -5 71 -5 72 23 85 15 6 34
12 41 12 7 0 13 11 13 25 0 14 5 25 10 25 6 0 10 9 10 20 0 11 7 20 15 20 8 0
15 5 15 10 0 6 9 10 20 10 11 0 25 9 32 20 11 17 24 20 80 20 63 0 68 -2 74
-24z m544 -456 c0 -5 7 -10 15 -10 8 0 15 -4 15 -10 0 -5 11 -10 25 -10 23 0
25 -3 25 -49 0 -59 -7 -81 -26 -81 -8 0 -14 -5 -14 -10 0 -7 -37 -10 -102 -8
l-103 3 -3 68 c-3 68 -3 68 28 80 16 6 30 17 30 24 0 9 17 13 55 13 30 0 55
-4 55 -10z m-104 -235 c4 -10 19 -15 43 -15 50 0 61 -14 61 -81 0 -62 -9 -75
-55 -81 l-30 -5 33 -8 c19 -4 36 -14 39 -21 3 -8 14 -14 24 -14 10 0 19 -7 19
-15 0 -10 11 -15 35 -15 24 0 35 -5 35 -15 0 -8 7 -15 15 -15 11 0 15 -11 14
-42 -1 -90 -17 -212 -28 -216 -6 -2 -11 -17 -11 -32 0 -16 -4 -32 -10 -35 -5
-3 -10 -15 -10 -27 0 -11 -8 -22 -20 -25 -11 -3 -20 -9 -20 -13 0 -5 -17 -14
-37 -21 -21 -6 -43 -15 -48 -20 -6 -4 -63 -8 -128 -8 l-117 0 -1 67 c-1 90
-17 140 -18 60 l-1 -58 -40 0 -40 0 0 -40 c0 -38 -1 -40 -32 -41 -28 -2 -29
-2 -8 -6 14 -3 29 -9 35 -14 5 -5 17 -9 28 -9 17 0 18 -7 15 -59 l-3 -59 63
-18 c34 -10 62 -23 62 -30 0 -6 9 -14 20 -17 17 -4 20 -14 20 -60 0 -36 -5
-59 -15 -67 -9 -8 -15 -30 -15 -56 0 -24 -4 -44 -10 -44 -5 0 -10 -9 -10 -20
0 -14 -7 -20 -22 -20 -30 0 -86 -50 -81 -71 2 -10 13 -19 24 -22 18 -5 20 -13
17 -94 l-3 -88 -85 -3 c-47 -2 -89 -7 -94 -12 -6 -6 -34 -10 -63 -10 -46 0
-53 3 -53 20 0 15 -7 20 -29 20 -26 0 -29 3 -35 46 -3 26 -6 66 -6 89 l0 42
53 7 c28 3 73 6 100 6 64 0 60 16 -8 23 -53 5 -115 32 -115 50 0 16 -28 37
-49 37 -16 0 -21 6 -21 28 0 21 -10 33 -40 52 -38 23 -40 26 -40 77 0 29 4 53
9 53 5 0 11 10 13 21 3 23 66 49 121 49 27 0 27 1 27 65 0 45 4 65 13 65 8 0
8 3 -2 9 -11 7 -13 25 -8 79 7 88 2 108 -33 122 -31 13 -40 34 -40 98 0 49 35
112 63 112 10 0 17 8 17 20 0 11 -4 20 -10 20 -5 0 -10 25 -10 55 0 54 0 55
30 55 17 0 30 5 30 11 0 12 123 9 135 -3 3 -3 9 -37 12 -76 5 -61 9 -71 27
-76 34 -9 36 -8 36 33 0 22 5 43 10 46 6 3 10 17 10 31 0 13 -4 24 -10 24 -5
0 -10 9 -10 19 0 12 -9 21 -25 25 -23 6 -25 11 -25 70 0 58 2 64 25 74 14 7
57 12 95 12 40 0 70 4 70 10 0 6 27 10 60 10 45 0 62 -4 66 -15z m-804 -20 c2
-12 22 -16 89 -19 48 -2 92 -6 98 -10 6 -4 11 -34 11 -68 0 -51 -3 -61 -19
-65 -15 -4 -21 -18 -26 -64 -6 -51 -10 -59 -28 -60 l-22 0 21 -11 c19 -9 22
-22 28 -110 7 -99 -7 -208 -26 -208 -4 0 -8 -12 -8 -26 0 -19 -7 -28 -30 -37
-16 -6 -30 -15 -30 -19 0 -9 -174 -11 -207 -2 -14 4 -23 14 -23 26 0 22 -29
56 -62 72 -13 6 -24 22 -26 34 -3 18 -10 22 -39 22 l-35 0 4 60 c1 33 0 60 -4
60 -5 0 -8 25 -8 55 l0 55 63 0 c50 0 69 5 87 20 13 11 27 20 32 20 4 0 8 9 8
20 0 15 7 20 25 20 47 0 25 17 -30 23 -30 3 -59 8 -65 12 -11 7 -14 103 -4
129 4 12 20 16 54 16 49 0 60 9 60 51 0 16 7 19 54 19 41 0 55 -4 58 -15z m65
-1791 c14 -4 23 -17 28 -40 4 -25 11 -34 25 -34 15 0 20 -7 20 -25 0 -18 5
-25 20 -25 11 0 20 -7 20 -15 0 -8 5 -15 10 -15 6 0 10 -20 10 -44 0 -26 6
-48 15 -56 10 -8 15 -31 15 -71 0 -46 -3 -59 -15 -59 -8 0 -15 -9 -15 -20 0
-27 -30 -40 -92 -40 -114 0 -166 41 -167 133 -1 40 -4 47 -21 47 -18 0 -20 7
-20 55 0 30 5 55 10 55 6 0 10 31 10 74 0 63 3 75 18 79 26 7 104 8 129 1z
m599 -206 c13 -20 18 -178 6 -178 -22 0 -42 -33 -42 -68 -1 -70 -14 -76 -142
-69 -65 3 -114 10 -116 16 -2 6 -10 11 -18 11 -10 0 -14 14 -14 55 0 46 3 55
18 55 20 0 75 54 86 83 3 11 15 21 26 24 11 3 20 10 20 15 0 5 15 22 32 39 27
24 41 29 85 29 30 0 55 -5 59 -12z"/>
</g>
</svg>
