<?xml version="1.0" standalone="no"?>
<!DOCTYPE svg PUBLIC "-//W3C//DTD SVG 20010904//EN"
 "http://www.w3.org/TR/2001/REC-SVG-20010904/DTD/svg10.dtd">
<svg version="1.0" xmlns="http://www.w3.org/2000/svg"
 width="300.000000pt" height="441.000000pt" viewBox="0 0 300.000000 441.000000"
 preserveAspectRatio="xMidYMid meet">
<metadata>
Created by potrace 1.10, written by Peter Selinger 2001-2011
</metadata>
<g transform="translate(0.000000,441.000000) scale(0.100000,-0.100000)"
fill="#000000" stroke="none">
<path d="M1026 4353 c-6 -14 -5 -15 5 -6 7 7 10 15 7 18 -3 3 -9 -2 -12 -12z"/>
<path d="M1500 4151 c-19 -4 -46 -15 -60 -24 -20 -13 -34 -14 -65 -7 -53 12
-175 -6 -240 -36 -27 -12 -69 -41 -93 -63 -24 -23 -45 -41 -48 -41 -20 0 -123
-135 -161 -210 -4 -8 -21 -41 -39 -72 -19 -33 -30 -65 -27 -77 3 -11 -2 -43
-10 -73 -19 -65 -26 -125 -33 -293 -7 -172 -6 -223 6 -298 5 -34 10 -81 10
-104 0 -23 7 -64 17 -90 13 -38 16 -92 18 -262 1 -164 4 -216 14 -219 9 -3 12
6 10 30 -2 18 0 38 4 44 3 6 5 30 3 53 -2 29 1 44 10 48 11 4 10 12 -3 44 -11
29 -12 43 -4 53 6 7 8 15 5 19 -3 3 -6 49 -7 101 -1 69 -5 96 -14 96 -6 0 -15
5 -19 11 -4 7 0 9 14 5 19 -7 20 -3 21 82 l1 89 -27 -1 c-25 -1 -28 3 -35 39
-11 61 -9 105 3 105 8 0 9 -11 5 -31 -4 -23 -3 -30 7 -26 48 20 50 20 45 6 -3
-8 -11 -13 -17 -12 -6 2 -11 -2 -11 -8 0 -5 -5 -7 -10 -4 -5 3 -10 2 -10 -4 0
-6 13 -9 30 -8 16 1 30 8 30 15 0 6 7 12 15 12 17 0 21 45 5 55 -5 3 -10 18
-11 33 0 22 -2 23 -8 9 -4 -10 -11 -18 -15 -17 -5 1 -12 -3 -15 -9 -4 -6 -16
-8 -27 -5 -17 4 -20 12 -18 47 2 23 3 61 3 85 1 35 4 42 20 42 11 0 21 -6 24
-12 2 -7 8 -10 12 -6 12 12 -5 28 -30 28 -23 0 -24 2 -21 76 2 68 5 78 25 89
l23 12 -23 7 c-22 6 -23 7 -7 19 11 9 15 21 11 35 -4 16 -1 22 11 22 10 0 13
-6 10 -17 -5 -15 -4 -16 5 -3 8 11 6 19 -7 30 -21 17 -16 70 7 78 9 3 11 0 6
-8 -5 -9 -4 -11 3 -6 15 9 15 11 -4 31 -9 9 -13 19 -10 23 4 4 16 -4 26 -18
10 -14 22 -21 26 -17 4 4 2 7 -4 7 -7 0 -12 9 -12 19 0 11 -5 23 -10 26 -6 4
-8 11 -4 16 3 6 12 3 20 -8 9 -12 13 -13 14 -5 0 7 4 11 9 8 4 -3 7 9 5 26 -2
17 1 37 7 44 6 8 9 23 6 35 -4 14 -2 19 8 15 7 -2 16 1 19 9 3 8 0 15 -7 18
-8 2 -8 5 1 11 7 4 12 2 12 -3 0 -20 26 -11 27 9 1 11 -3 20 -8 20 -6 0 -7 5
-4 10 5 8 11 8 20 0 16 -13 28 1 19 24 -3 9 -1 16 4 16 6 0 13 -8 15 -17 3
-11 5 -7 6 10 0 15 6 27 11 27 6 0 21 11 34 25 13 13 26 22 29 18 4 -3 7 -1 7
5 0 7 8 5 18 -5 11 -10 17 -27 16 -37 -3 -17 -2 -18 14 -3 9 9 33 30 52 47 32
28 34 31 18 44 -24 18 -23 29 2 16 16 -8 20 -8 18 2 -2 8 6 12 20 11 12 -2 22
3 22 10 0 7 3 8 8 2 8 -12 53 -15 46 -3 -3 4 4 8 15 8 12 0 21 -4 21 -9 0 -16
93 -4 137 18 47 23 93 27 111 9 9 -9 12 -8 12 7 0 17 1 17 20 -3 19 -20 43
-27 77 -23 6 1 14 -3 18 -9 3 -5 14 -10 23 -10 15 0 15 2 2 10 -11 7 -12 10
-2 10 18 0 43 -26 34 -35 -4 -4 0 -6 8 -3 16 5 60 -35 60 -55 0 -8 3 -8 11 0
21 21 92 -20 102 -58 4 -17 3 -18 -9 -8 -8 6 -14 18 -14 25 0 8 -7 14 -16 14
-19 0 -13 -9 45 -67 l35 -35 -27 -14 c-15 -8 -27 -19 -27 -25 0 -6 7 -4 15 5
8 8 25 18 38 22 12 4 25 11 28 17 4 5 12 6 18 2 9 -5 7 -11 -6 -21 -15 -11
-15 -13 -2 -8 10 3 23 -2 30 -11 8 -8 19 -21 24 -28 22 -26 49 -72 47 -79 -1
-5 7 -8 19 -8 11 0 18 -4 15 -8 -3 -5 3 -31 13 -58 27 -72 34 -127 16 -120 -8
3 -15 1 -15 -5 0 -6 -4 -7 -10 -4 -5 3 -10 1 -10 -4 0 -6 7 -11 16 -11 10 0
14 -6 11 -15 -4 -8 -1 -17 5 -21 7 -5 2 -11 -13 -17 l-24 -10 22 -4 c20 -4 22
-9 18 -46 -9 -71 -16 -95 -29 -100 -25 -10 -26 -48 -2 -70 20 -18 22 -24 13
-54 -6 -19 -23 -43 -38 -54 l-27 -19 -4 35 c-3 25 0 35 12 39 12 3 11 4 -3 5
-15 1 -17 11 -16 84 2 87 -3 133 -16 145 -5 4 -6 0 -2 -9 3 -9 1 -21 -4 -26
-6 -6 -4 -14 6 -23 8 -7 15 -22 14 -34 0 -20 -1 -21 -9 -1 -8 20 -9 20 -9 -1
-1 -11 1 -23 4 -26 3 -3 8 -59 10 -124 2 -66 8 -155 13 -199 6 -44 10 -91 9
-105 -1 -66 0 -69 40 -59 43 9 56 3 30 -15 -19 -15 -23 -36 -6 -36 8 0 8 -4 0
-14 -8 -10 -9 -16 -1 -21 13 -8 13 -25 0 -25 -6 0 -15 10 -20 23 -15 35 -38
60 -49 52 -10 -6 -16 26 -12 68 1 9 -3 17 -8 17 -6 0 -11 7 -11 16 0 8 5 12
10 9 6 -3 10 -2 10 4 0 5 -5 13 -11 16 -6 4 -8 13 -5 20 6 15 -5 57 -39 153
-14 40 -23 77 -20 82 2 4 -6 10 -20 12 -17 4 -25 1 -25 -8 0 -8 6 -14 14 -14
8 0 18 -5 22 -12 5 -7 2 -9 -9 -5 -20 7 -31 -20 -14 -37 7 -7 17 -11 24 -9 6
2 15 -1 19 -8 4 -7 3 -9 -4 -5 -6 3 -13 2 -16 -3 -8 -12 13 -71 25 -71 13 0
11 18 -3 23 -10 4 -10 6 0 6 18 1 28 -29 12 -39 -17 -10 -3 -50 18 -50 16 -1
15 -2 0 -11 -22 -13 -24 -33 -2 -25 10 4 14 2 11 -6 -2 -7 -10 -12 -16 -11 -6
2 -11 -4 -11 -13 0 -8 4 -13 9 -9 6 3 15 -3 21 -14 7 -13 7 -22 0 -26 -5 -3
-10 -16 -10 -28 0 -18 2 -19 10 -7 8 13 10 12 10 -2 0 -10 -3 -18 -7 -18 -10
0 -10 -81 -1 -96 9 -13 -14 -76 -26 -74 -4 1 -11 -1 -14 -5 -4 -4 0 -5 8 -3
12 2 14 -8 11 -57 -2 -33 -7 -64 -11 -70 -5 -5 -10 -23 -13 -40 -9 -55 -111
-215 -137 -215 -6 0 -10 -5 -10 -11 0 -7 -8 -18 -18 -26 -16 -13 -15 -13 3 -4
11 5 31 21 44 35 14 14 28 26 33 26 5 0 5 -26 2 -57 -4 -32 -6 -125 -6 -206 0
-122 2 -151 16 -166 9 -10 16 -24 16 -32 1 -23 54 -112 70 -117 13 -3 13 -2 1
6 -7 5 -10 15 -6 22 6 9 9 9 16 -1 6 -10 9 -10 9 -2 0 9 7 9 28 -2 15 -7 46
-21 70 -31 23 -9 42 -21 42 -26 0 -5 5 -6 11 -3 5 4 31 -9 56 -29 26 -20 56
-36 68 -36 12 0 25 -3 29 -7 4 -4 17 -8 29 -9 26 -2 108 -23 122 -32 6 -4 13
-7 18 -8 4 -1 8 -2 10 -3 1 -2 12 -4 24 -7 60 -11 248 -98 318 -148 17 -11 32
-21 35 -21 3 -1 16 -7 28 -14 13 -7 26 -10 30 -7 10 10 -24 38 -96 79 -161 91
-301 146 -497 193 -42 10 -85 28 -107 45 -20 16 -72 43 -116 60 -60 24 -92 44
-136 87 l-57 56 3 225 3 226 33 50 c41 61 60 125 74 241 l11 91 31 1 c18 0 38
9 47 21 17 21 34 134 45 291 9 128 8 132 -17 153 -21 17 -21 19 -6 60 19 51
16 91 -6 95 -21 4 -22 21 -3 28 24 9 28 41 38 279 3 78 -55 215 -91 215 -6 0
-11 6 -11 14 0 8 -13 26 -30 39 -16 14 -30 29 -30 33 0 12 -147 144 -161 144
-10 0 -27 12 -57 41 -23 22 -120 74 -155 83 -44 11 -168 15 -207 7z m215 -39
c-3 -3 -11 0 -18 7 -9 10 -8 11 6 5 10 -3 15 -9 12 -12z m-546 -79 c-7 -10
-13 -19 -14 -20 0 -1 -14 -4 -30 -8 l-30 -6 30 25 c36 31 65 36 44 9z m841
-112 c0 -6 -4 -13 -10 -16 -5 -3 -10 1 -10 9 0 9 5 16 10 16 6 0 10 -4 10 -9z
m-1146 -192 c-3 -5 -10 -7 -15 -3 -5 3 -7 10 -3 15 3 5 10 7 15 3 5 -3 7 -10
3 -15z m1321 -470 c11 -17 -1 -21 -15 -4 -8 9 -8 15 -2 15 6 0 14 -5 17 -11z
m-155 -149 c0 -5 -4 -10 -9 -10 -6 0 -13 5 -16 10 -3 6 1 10 9 10 9 0 16 -4
16 -10z m174 -6 c4 -11 -1 -22 -14 -31 -11 -8 -29 -31 -40 -51 l-19 -37 -1 35
c-1 19 -3 45 -4 58 -2 15 2 21 10 18 7 -3 15 2 18 10 7 19 42 18 50 -2z
m-1371 -29 c3 -16 0 -24 -7 -22 -14 4 -21 47 -8 47 5 0 12 -11 15 -25z m1383
-50 c-5 -61 -16 -70 -16 -13 0 39 5 58 17 58 2 0 1 -20 -1 -45z m-26 -11 c0
-15 5 -55 12 -89 12 -69 3 -91 -37 -91 -19 0 -21 6 -20 71 1 65 20 135 37 135
5 0 8 -12 8 -26z m-1390 -88 c0 -9 -7 -12 -20 -9 -31 8 -34 23 -6 23 16 0 26
-6 26 -14z m0 -38 c0 -11 -28 -10 -35 1 -3 6 4 9 15 8 11 -1 20 -5 20 -9z
m-20 -28 c0 -5 -5 -10 -11 -10 -5 0 -7 5 -4 10 3 6 8 10 11 10 2 0 4 -4 4 -10z
m20 -46 c0 -2 -7 -4 -15 -4 -8 0 -15 4 -15 10 0 5 7 7 15 4 8 -4 15 -8 15 -10z
m1330 -63 c0 -5 -6 -14 -14 -20 -12 -10 -14 -9 -11 6 2 10 4 19 4 21 2 6 21 1
21 -7z m-11 -57 c-10 -12 -9 -13 5 -8 11 4 16 1 16 -10 0 -13 -4 -14 -25 -4
-30 14 -33 33 -4 35 17 2 18 -1 8 -13z m57 1 c17 -17 10 -37 -10 -29 -17 6
-29 44 -14 44 5 0 16 -7 24 -15z m-151 -934 c3 -5 1 -12 -4 -15 -5 -3 -11 1
-15 9 -6 16 9 21 19 6z m32 -41 c-1 -22 -18 -22 -25 0 -3 7 0 10 7 6 6 -4 11
-2 11 3 0 6 2 11 4 11 3 0 4 -9 3 -20z"/>
<path d="M1640 4092 c0 -12 19 -26 26 -19 2 2 -2 10 -11 17 -9 8 -15 8 -15 2z"/>
<path d="M1680 4070 c0 -6 7 -10 15 -10 8 0 15 2 15 4 0 2 -7 6 -15 10 -8 3
-15 1 -15 -4z"/>
<path d="M1480 4046 c0 -2 7 -7 16 -10 8 -3 12 -2 9 4 -6 10 -25 14 -25 6z"/>
<path d="M1616 4038 c3 -4 9 -8 15 -8 5 0 9 4 9 8 0 5 -7 9 -15 9 -8 0 -12 -4
-9 -9z"/>
<path d="M1725 4040 c-3 -5 -1 -10 4 -10 6 0 11 5 11 10 0 6 -2 10 -4 10 -3 0
-8 -4 -11 -10z"/>
<path d="M1365 4020 c-3 -5 -2 -10 4 -10 5 0 13 5 16 10 3 6 2 10 -4 10 -5 0
-13 -4 -16 -10z"/>
<path d="M1536 4024 c7 -3 11 -13 9 -22 -1 -9 0 -11 2 -4 3 6 9 12 14 12 6 0
7 5 4 10 -3 6 -14 10 -23 9 -9 0 -12 -3 -6 -5z"/>
<path d="M1625 3990 c-3 -5 -1 -10 4 -10 6 0 11 5 11 10 0 6 -2 10 -4 10 -3 0
-8 -4 -11 -10z"/>
<path d="M1698 3993 c-10 -2 -18 -11 -18 -19 0 -12 4 -12 20 -4 11 6 20 15 20
20 0 6 -1 9 -2 9 -2 -1 -11 -3 -20 -6z"/>
<path d="M1866 3991 c-3 -5 3 -11 14 -14 13 -3 20 0 20 9 0 15 -26 19 -34 5z"/>
<path d="M1380 3980 c0 -3 5 -12 10 -20 8 -13 10 -13 10 2 0 9 6 18 13 21 6 3
2 4 -10 4 -13 -1 -23 -4 -23 -7z"/>
<path d="M1450 3980 c0 -5 7 -7 15 -4 8 4 15 8 15 10 0 2 -7 4 -15 4 -8 0 -15
-4 -15 -10z"/>
<path d="M1577 3967 c-3 -8 -2 -20 3 -26 5 -9 8 -4 8 13 0 29 -3 32 -11 13z"/>
<path d="M1713 3955 c-15 -13 -22 -25 -15 -25 8 0 10 -8 6 -25 -3 -14 -2 -25
3 -25 5 0 10 12 11 27 1 15 11 35 22 45 39 37 14 40 -27 3z"/>
<path d="M1780 3951 c0 -5 -9 -12 -19 -16 -35 -11 -32 -33 10 -74 28 -27 37
-40 27 -44 -9 -4 -8 -6 4 -6 9 -1 18 -6 20 -11 5 -15 68 18 68 35 0 11 -6 10
-31 -2 -26 -13 -33 -13 -40 -2 -6 10 -1 16 20 22 16 4 31 14 35 22 7 19 7 19
-39 -1 -35 -14 -39 -14 -54 2 -15 15 -14 16 7 11 24 -6 56 18 46 34 -3 6 -12
2 -20 -8 -12 -17 -13 -16 -14 9 0 15 -4 30 -10 33 -5 3 -10 2 -10 -4z m10 -40
c0 -5 -9 -11 -20 -14 -20 -5 -26 3 -13 16 9 10 33 8 33 -2z"/>
<path d="M1137 3943 c-13 -12 -7 -19 18 -21 28 -2 34 12 9 22 -19 7 -19 7 -27
-1z"/>
<path d="M1399 3933 c-13 -16 -12 -17 4 -4 9 7 17 15 17 17 0 8 -8 3 -21 -13z"/>
<path d="M1097 3923 c-12 -11 -8 -23 8 -23 8 0 15 -7 15 -15 0 -17 -25 -20
-35 -5 -9 15 -25 12 -25 -5 0 -8 9 -15 20 -15 11 0 20 -7 20 -15 0 -8 5 -15
11 -15 5 0 7 5 4 11 -8 11 27 49 45 49 5 0 10 4 10 9 0 5 -8 7 -19 4 -11 -3
-21 2 -24 11 -7 17 -19 21 -30 9z"/>
<path d="M1200 3920 c0 -5 5 -10 10 -10 6 0 10 5 10 10 0 6 -4 10 -10 10 -5 0
-10 -4 -10 -10z"/>
<path d="M1470 3920 c-8 -5 -12 -11 -10 -14 3 -2 14 2 24 10 22 15 10 19 -14
4z"/>
<path d="M1396 3895 c5 -11 0 -14 -17 -13 -15 2 -24 -3 -27 -14 -2 -10 2 -18
8 -18 6 0 9 4 5 9 -3 5 -1 12 5 16 5 3 10 -2 10 -12 1 -17 2 -17 15 1 13 17
15 18 15 3 0 -9 5 -17 11 -17 5 0 8 -4 5 -8 -2 -4 5 -9 16 -9 11 -1 18 1 15 4
-4 3 4 14 16 24 l22 18 -22 1 c-14 0 -23 -6 -23 -15 0 -21 -17 -19 -30 4 -13
26 -13 34 2 25 7 -4 8 -3 4 4 -11 18 -36 15 -30 -3z"/>
<path d="M1526 3895 c-4 -10 1 -15 16 -15 17 0 18 -2 8 -15 -10 -12 -10 -15 3
-15 8 0 18 7 21 16 4 9 13 14 21 10 8 -3 15 -1 15 5 0 7 -10 9 -24 5 -16 -4
-26 -1 -30 9 -7 19 -22 19 -30 0z"/>
<path d="M1250 3892 c1 -14 29 -44 39 -41 5 2 -1 14 -14 26 -14 12 -25 18 -25
15z"/>
<path d="M1635 3880 c-3 -5 -1 -10 5 -10 6 0 8 -4 5 -10 -3 -5 -2 -10 4 -10 5
0 9 9 8 20 -1 21 -12 26 -22 10z"/>
<path d="M1496 3865 c-3 -8 -1 -15 4 -15 6 0 10 7 10 15 0 8 -2 15 -4 15 -2 0
-6 -7 -10 -15z"/>
<path d="M1700 3855 c-8 -9 -8 -15 -2 -15 12 0 26 19 19 26 -2 2 -10 -2 -17
-11z"/>
<path d="M1746 3851 c-4 -7 -5 -15 -2 -18 9 -9 19 4 14 18 -4 11 -6 11 -12 0z"/>
<path d="M1055 3824 c25 -20 31 -21 33 -8 5 20 -1 25 -34 29 l-29 3 30 -24z"/>
<path d="M1186 3835 c4 -8 10 -12 15 -9 11 6 2 24 -11 24 -5 0 -7 -7 -4 -15z"/>
<path d="M1990 3834 l-25 -14 33 2 c17 1 32 6 32 10 0 15 -16 16 -40 2z"/>
<path d="M2067 3797 c15 -19 30 -33 32 -31 5 5 -43 63 -52 63 -5 1 4 -14 20
-32z"/>
<path d="M1160 3801 c0 -5 7 -11 14 -14 10 -4 13 -1 9 9 -6 15 -23 19 -23 5z"/>
<path d="M1900 3798 c0 -10 -10 -15 -31 -16 -43 -1 -44 -5 -13 -38 14 -16 33
-38 40 -50 11 -15 22 -19 49 -16 27 3 33 7 25 16 -5 7 -23 11 -40 8 -37 -5
-40 13 -4 22 19 5 24 10 17 17 -8 8 -17 8 -30 1 -11 -6 -25 -7 -33 -2 -17 11
-14 14 22 26 24 8 25 11 12 28 -11 16 -14 16 -14 4z"/>
<path d="M1973 3795 c0 -8 4 -12 9 -9 5 3 6 10 3 15 -9 13 -12 11 -12 -6z"/>
<path d="M1016 3785 c-3 -9 0 -15 9 -15 8 0 15 4 15 10 0 5 7 7 15 4 8 -4 15
-1 15 5 0 17 -47 13 -54 -4z"/>
<path d="M1071 3776 c-6 -8 -10 -19 -9 -26 2 -7 -3 -15 -11 -18 -9 -3 -11 0
-6 8 5 9 4 11 -4 6 -6 -4 -18 -3 -26 4 -10 8 -15 8 -20 0 -4 -7 2 -14 14 -17
28 -7 27 -21 -3 -33 -13 -5 -28 -15 -32 -22 -6 -10 -5 -11 7 -1 9 8 20 9 29 3
13 -8 13 -12 -2 -27 -10 -9 -18 -13 -18 -7 0 6 -7 11 -15 11 -8 0 -15 -6 -15
-13 0 -6 6 -11 13 -10 6 0 13 -3 14 -9 2 -5 -5 -10 -14 -10 -9 0 -18 -6 -21
-13 -2 -6 3 -12 12 -12 24 0 19 -17 -6 -25 l-23 -8 23 -4 c12 -2 22 -8 22 -12
0 -13 -26 -32 -33 -24 -4 3 -7 2 -7 -4 0 -12 28 -25 39 -19 4 3 8 26 10 52 1
26 12 65 25 88 12 23 21 47 19 54 -3 6 2 12 10 12 8 0 17 10 20 21 4 14 11 20
21 16 11 -4 13 0 10 21 -7 34 -9 36 -23 18z"/>
<path d="M2000 3726 c0 -8 4 -17 9 -20 5 -4 7 3 4 14 -6 23 -13 26 -13 6z"/>
<path d="M890 3699 c0 -5 5 -7 10 -4 6 3 10 8 10 11 0 2 -4 4 -10 4 -5 0 -10
-5 -10 -11z"/>
<path d="M2140 3700 c-9 -6 -10 -10 -3 -10 6 0 15 5 18 10 8 12 4 12 -15 0z"/>
<path d="M2155 3651 c4 -14 2 -21 -6 -21 -8 0 -7 -4 3 -12 9 -7 19 -24 21 -38
3 -14 4 -4 3 21 0 26 -7 52 -15 59 -11 11 -12 9 -6 -9z"/>
<path d="M1280 3644 c0 -8 5 -12 10 -9 6 4 8 11 5 16 -9 14 -15 11 -15 -7z"/>
<path d="M1420 3650 c0 -5 5 -10 10 -10 6 0 10 5 10 10 0 6 -4 10 -10 10 -5 0
-10 -4 -10 -10z"/>
<path d="M1935 3605 c15 -32 29 -49 39 -49 9 1 16 -4 16 -12 0 -8 -6 -14 -13
-14 -28 0 -37 -22 -20 -54 20 -39 15 -35 52 -46 24 -7 31 -6 31 6 0 9 -11 14
-29 14 -24 0 -31 6 -40 31 -13 39 -14 49 -1 29 6 -10 10 -11 10 -2 0 6 5 11
11 10 6 -2 13 15 15 37 3 24 1 35 -4 27 -5 -7 -16 -10 -25 -6 -21 8 -21 13 1
31 15 12 14 13 -10 7 -22 -5 -28 -3 -28 11 0 10 5 15 13 12 8 -3 20 -1 28 4
15 9 15 10 -42 13 l-26 2 22 -51z"/>
<path d="M1245 3620 c-3 -5 -1 -10 4 -10 6 0 11 5 11 10 0 6 -2 10 -4 10 -3 0
-8 -4 -11 -10z"/>
<path d="M1600 3595 c-8 -9 -8 -15 -2 -15 12 0 26 19 19 26 -2 2 -10 -2 -17
-11z"/>
<path d="M1319 3553 c-13 -16 -12 -17 4 -4 9 7 17 15 17 17 0 8 -8 3 -21 -13z"/>
<path d="M1260 3549 c0 -5 5 -7 10 -4 6 3 10 8 10 11 0 2 -4 4 -10 4 -5 0 -10
-5 -10 -11z"/>
<path d="M1935 3540 c3 -5 8 -10 11 -10 2 0 4 5 4 10 0 6 -5 10 -11 10 -5 0
-7 -4 -4 -10z"/>
<path d="M2025 3540 c3 -5 8 -10 11 -10 2 0 4 5 4 10 0 6 -5 10 -11 10 -5 0
-7 -4 -4 -10z"/>
<path d="M1195 3530 c-3 -5 -1 -10 4 -10 6 0 11 5 11 10 0 6 -2 10 -4 10 -3 0
-8 -4 -11 -10z"/>
<path d="M2140 3515 c0 -8 5 -15 10 -15 6 0 10 -7 10 -16 0 -8 4 -13 10 -9 6
3 5 15 -2 30 -12 28 -28 33 -28 10z"/>
<path d="M1989 3490 c-8 -6 -8 -9 0 -14 6 -4 11 -5 11 -1 0 3 9 1 19 -4 16 -9
18 -8 14 8 -5 18 -24 23 -44 11z"/>
<path d="M926 3475 c4 -8 8 -15 10 -15 2 0 4 7 4 15 0 8 -4 15 -10 15 -5 0 -7
-7 -4 -15z"/>
<path d="M955 3470 c3 -5 8 -10 11 -10 2 0 4 5 4 10 0 6 -5 10 -11 10 -5 0 -7
-4 -4 -10z"/>
<path d="M2093 3465 c0 -8 4 -12 9 -9 4 3 8 9 8 15 0 5 -4 9 -8 9 -5 0 -9 -7
-9 -15z"/>
<path d="M1758 3463 c6 -2 18 -2 25 0 6 3 1 5 -13 5 -14 0 -19 -2 -12 -5z"/>
<path d="M1825 3460 c3 -5 8 -10 11 -10 2 0 4 5 4 10 0 6 -5 10 -11 10 -5 0
-7 -4 -4 -10z"/>
<path d="M1663 3423 c1 -18 5 -33 10 -33 4 0 7 5 7 11 0 18 28 41 35 28 4 -6
13 -8 21 -5 7 3 16 1 19 -4 3 -4 13 -7 23 -5 9 2 21 4 25 4 5 1 5 6 2 11 -3 6
-1 10 6 10 7 0 10 -11 7 -29 -4 -27 -3 -28 24 -20 38 11 119 3 129 -13 5 -7 9
-23 9 -35 0 -12 5 -25 10 -28 6 -3 10 -11 10 -16 0 -6 -5 -7 -11 -3 -7 4 -9
-1 -7 -12 2 -11 10 -18 18 -16 7 2 17 -3 21 -10 7 -10 9 -9 9 5 0 9 -4 17 -10
17 -5 0 -10 7 -10 16 0 14 2 14 16 3 14 -12 16 -11 13 6 -2 10 -6 17 -9 14 -8
-6 -39 25 -33 34 2 4 13 2 24 -3 13 -7 19 -7 19 -1 0 6 -11 13 -25 17 -14 3
-25 13 -25 20 0 15 -40 35 -77 37 -11 1 -19 5 -17 8 2 3 -8 11 -21 17 -15 7
-25 8 -25 2 0 -6 7 -10 15 -10 8 0 15 -4 15 -10 0 -16 -47 -12 -54 5 -6 17
-36 21 -36 4 0 -10 -40 -3 -50 10 -3 3 -21 6 -42 6 -35 0 -36 -1 -35 -32z"/>
<path d="M1901 3457 c2 -1 12 -9 22 -16 15 -12 17 -12 11 3 -3 9 -13 16 -22
16 -8 0 -13 -1 -11 -3z"/>
<path d="M927 3434 c5 -15 35 -12 41 4 2 7 -6 11 -21 10 -15 -1 -23 -7 -20
-14z"/>
<path d="M1616 3434 c-9 -23 -2 -28 13 -10 7 8 8 17 3 20 -6 3 -13 -1 -16 -10z"/>
<path d="M760 3420 c0 -5 7 -10 16 -10 8 0 12 5 9 10 -3 6 -10 10 -16 10 -5 0
-9 -4 -9 -10z"/>
<path d="M1310 3422 c0 -4 -16 -6 -35 -4 -21 3 -35 0 -35 -7 0 -6 7 -8 15 -5
8 3 28 2 44 -4 26 -9 28 -8 24 9 -5 19 -13 26 -13 11z"/>
<path d="M1346 3405 c4 -8 13 -15 21 -15 12 0 12 2 -1 15 -8 8 -17 15 -20 15
-3 0 -3 -7 0 -15z"/>
<path d="M1635 3410 c-3 -5 -1 -10 4 -10 6 0 11 5 11 10 0 6 -2 10 -4 10 -3 0
-8 -4 -11 -10z"/>
<path d="M1995 3410 c-3 -6 2 -13 12 -17 10 -4 21 -11 25 -17 5 -8 8 -7 8 1 0
11 -26 43 -35 43 -2 0 -7 -5 -10 -10z"/>
<path d="M805 3389 c6 -19 4 -21 -21 -16 l-28 5 24 -18 c14 -10 28 -16 32 -14
12 8 10 64 -3 64 -6 0 -8 -9 -4 -21z"/>
<path d="M920 3392 c0 -8 6 -12 15 -8 9 3 15 0 15 -9 0 -9 -6 -12 -15 -9 -8 4
-15 2 -15 -4 0 -8 22 -22 34 -22 1 0 3 15 4 33 2 27 -1 33 -18 33 -11 0 -20
-7 -20 -14z"/>
<path d="M1200 3400 c-12 -8 -11 -10 8 -10 12 0 22 5 22 10 0 13 -11 13 -30 0z"/>
<path d="M840 3385 c-7 -9 -8 -15 -2 -15 5 0 12 7 16 15 3 8 4 15 2 15 -2 0
-9 -7 -16 -15z"/>
<path d="M1046 3375 c-11 -8 -18 -17 -15 -19 2 -3 15 4 29 14 14 11 21 20 15
19 -5 0 -19 -6 -29 -14z"/>
<path d="M1092 3374 c-12 -8 -20 -19 -18 -23 3 -4 -3 -8 -12 -9 -9 -1 -26 -4
-37 -6 -11 -2 -23 -5 -27 -5 -4 -1 -12 -19 -18 -42 -9 -33 -8 -48 6 -85 9 -24
23 -49 31 -56 12 -10 12 -7 2 18 -7 16 -16 33 -21 39 -13 14 -10 85 4 85 6 0
8 3 4 7 -12 12 58 30 122 30 35 0 66 4 70 8 4 5 1 5 -5 1 -22 -13 -14 12 10
30 l22 16 -22 -5 c-13 -3 -23 -1 -23 5 0 5 -12 0 -26 -11 -28 -22 -64 -28 -64
-11 0 6 9 10 20 10 11 0 20 5 20 10 0 14 -12 12 -38 -6z"/>
<path d="M1230 3380 c0 -5 6 -10 14 -10 21 0 40 -27 24 -33 -9 -4 -9 -6 -1 -6
17 -1 23 12 16 37 -3 15 -13 22 -29 22 -13 0 -24 -4 -24 -10z"/>
<path d="M1300 3381 c0 -13 28 -33 33 -23 3 4 -3 13 -14 20 -10 7 -19 8 -19 3z"/>
<path d="M986 3372 c-2 -4 -1 -14 3 -21 6 -9 10 -7 14 8 5 20 -7 29 -17 13z"/>
<path d="M770 3330 c-21 -13 -7 -22 27 -18 27 3 27 4 7 15 -12 7 -26 8 -34 3z"/>
<path d="M836 3332 c-3 -5 1 -15 8 -21 11 -10 14 -9 12 3 -3 21 -13 29 -20 18z"/>
<path d="M920 3330 c0 -13 18 -22 24 -11 3 5 -1 11 -9 15 -8 3 -15 1 -15 -4z"/>
<path d="M1674 3318 l-19 -23 23 19 c21 18 27 26 19 26 -2 0 -12 -10 -23 -22z"/>
<path d="M1205 3320 c-3 -5 1 -10 10 -10 9 0 13 5 10 10 -3 6 -8 10 -10 10 -2
0 -7 -4 -10 -10z"/>
<path d="M1502 3325 c4 -4 3 -14 -3 -22 -7 -8 -8 -13 -1 -13 15 0 23 28 9 36
-7 4 -9 4 -5 -1z"/>
<path d="M1465 3310 c-3 -5 -1 -10 4 -10 6 0 11 5 11 10 0 6 -2 10 -4 10 -3 0
-8 -4 -11 -10z"/>
<path d="M937 3293 c-13 -13 -7 -53 8 -53 10 0 15 10 15 30 0 29 -9 38 -23 23z"/>
<path d="M1690 3290 c0 -5 7 -7 15 -4 8 4 15 8 15 10 0 2 -7 4 -15 4 -8 0 -15
-4 -15 -10z"/>
<path d="M897 3283 c-3 -5 -1 -17 4 -28 7 -17 8 -17 8 8 1 27 -4 34 -12 20z"/>
<path d="M1750 3259 c-13 -6 -39 -21 -56 -34 -17 -13 -35 -21 -39 -17 -5 4 -5
1 -1 -6 6 -10 13 -10 34 4 53 35 102 54 138 54 33 0 35 -2 23 -17 -11 -15 -11
-16 1 -5 8 6 23 12 35 13 20 0 20 0 0 9 -27 12 -104 11 -135 -1z"/>
<path d="M760 3245 c0 -8 5 -15 10 -15 6 0 10 7 10 15 0 8 -4 15 -10 15 -5 0
-10 -7 -10 -15z"/>
<path d="M1800 3238 c0 -13 -11 -20 -37 -24 -43 -6 -88 -38 -78 -54 3 -5 -2
-10 -11 -10 -33 0 0 -18 36 -20 58 -3 68 -1 47 11 -10 6 -24 8 -32 5 -7 -2
-19 1 -25 9 -8 10 -4 17 21 29 40 20 39 20 39 -4 0 -12 12 -26 31 -35 29 -15
32 -15 50 1 10 9 19 25 19 35 0 17 1 17 30 1 l30 -17 -40 -18 c-47 -21 -52
-35 -10 -29 17 2 30 8 30 12 0 5 13 11 29 15 17 4 28 11 25 18 -5 14 -65 43
-107 53 -15 3 -32 14 -37 23 -9 15 -9 14 -10 -1z m25 -38 c4 -6 -5 -10 -20
-10 -15 0 -24 4 -20 10 3 6 12 10 20 10 8 0 17 -4 20 -10z"/>
<path d="M1985 3240 c3 -5 13 -10 21 -10 8 0 14 -5 14 -11 0 -6 -9 -8 -20 -4
-28 9 -26 -14 3 -24 19 -7 23 -5 27 18 4 18 1 28 -10 33 -23 10 -42 9 -35 -2z"/>
<path d="M790 3232 c0 -5 7 -9 15 -9 8 0 12 4 9 9 -3 4 -9 8 -15 8 -5 0 -9 -4
-9 -8z"/>
<path d="M1900 3225 c7 -8 20 -15 29 -15 13 1 13 3 -3 15 -26 19 -42 19 -26 0z"/>
<path d="M876 3215 c-3 -8 -1 -15 4 -15 6 0 10 7 10 15 0 8 -2 15 -4 15 -2 0
-6 -7 -10 -15z"/>
<path d="M947 3088 c3 -79 6 -168 7 -198 1 -30 6 -68 10 -83 6 -19 4 -37 -5
-53 -16 -31 -3 -57 30 -59 15 -1 21 3 19 14 -2 9 -13 16 -26 15 -12 0 -22 3
-22 8 0 4 7 8 15 8 14 0 15 16 13 105 -2 58 -6 105 -9 105 -11 0 -18 40 -7 46
5 3 6 19 3 36 -12 53 -12 78 -2 78 7 0 7 4 -1 12 -7 7 -12 31 -12 54 0 24 -4
45 -9 48 -6 4 -7 -52 -4 -136z m20 -230 c-3 -8 -6 -5 -6 6 -1 11 2 17 5 13 3
-3 4 -12 1 -19z"/>
<path d="M1138 3204 c-33 -15 -58 -33 -58 -42 0 -13 2 -13 18 0 23 21 105 48
145 48 18 -1 43 -7 57 -15 14 -8 38 -14 54 -15 32 0 32 8 0 13 -10 2 -29 9
-42 15 -47 26 -113 25 -174 -4z"/>
<path d="M760 3203 c0 -9 6 -13 15 -10 8 4 17 2 20 -3 7 -12 25 -13 25 -2 0 4
-13 13 -30 19 -25 9 -30 9 -30 -4z"/>
<path d="M1606 3185 c-2 -7 4 -15 14 -18 10 -3 21 1 24 8 2 7 -4 15 -14 18
-10 3 -21 -1 -24 -8z"/>
<path d="M896 3129 c3 -41 2 -59 -6 -54 -5 3 -10 2 -10 -4 0 -5 6 -12 13 -14
7 -3 5 -6 -5 -6 -18 -1 -26 -31 -9 -31 5 0 12 -15 16 -32 l8 -33 6 35 c6 33 6
73 3 163 -1 20 -6 37 -11 37 -6 0 -8 -26 -5 -61z"/>
<path d="M1172 3173 c-24 -8 -51 -21 -60 -28 -9 -8 -26 -21 -37 -29 -19 -15
-18 -15 16 -16 20 0 39 -3 43 -7 11 -12 56 -14 56 -3 0 5 -8 10 -17 10 -10 0
-24 4 -32 9 -12 8 -12 12 -2 25 12 14 15 13 33 -9 11 -14 29 -25 40 -25 22 0
58 35 58 57 0 11 5 11 30 -2 38 -20 38 -35 1 -35 -17 0 -33 -5 -37 -11 -5 -8
6 -9 37 -3 24 4 52 8 61 8 23 0 13 12 -35 43 -47 30 -73 32 -91 7 -8 -11 -18
-14 -26 -9 -11 7 -10 10 5 15 10 4 14 9 9 12 -5 3 -28 -1 -52 -9z m33 -41 c-3
-3 -11 0 -18 7 -9 10 -8 11 6 5 10 -3 15 -9 12 -12z"/>
<path d="M1386 3174 c-8 -20 -4 -25 11 -16 7 4 9 13 4 21 -6 10 -10 9 -15 -5z"/>
<path d="M760 3170 c0 -5 7 -7 15 -4 8 4 15 8 15 10 0 2 -7 4 -15 4 -8 0 -15
-4 -15 -10z"/>
<path d="M1555 3170 c3 -5 8 -10 11 -10 2 0 4 5 4 10 0 6 -5 10 -11 10 -5 0
-7 -4 -4 -10z"/>
<path d="M790 3149 c0 -6 -7 -9 -15 -5 -8 3 -15 2 -15 -3 0 -16 13 -19 31 -8
20 13 25 27 9 27 -5 0 -10 -5 -10 -11z"/>
<path d="M1447 3134 c-10 -13 -14 -24 -10 -24 13 0 43 39 35 44 -4 2 -15 -7
-25 -20z"/>
<path d="M1396 3134 c-9 -24 -7 -28 9 -14 17 14 20 30 6 30 -5 0 -12 -7 -15
-16z"/>
<path d="M1556 3127 c3 -10 9 -15 12 -12 3 3 0 11 -7 18 -10 9 -11 8 -5 -6z"/>
<path d="M1730 3107 c0 -5 16 -6 36 -2 27 5 34 3 28 -6 -4 -8 -3 -10 4 -5 24
15 11 27 -28 24 -22 -1 -40 -6 -40 -11z"/>
<path d="M1640 3103 c1 -11 26 -43 34 -43 3 0 26 -16 52 -35 25 -19 52 -35 59
-35 8 0 19 -8 24 -17 6 -10 11 -13 11 -6 0 7 -26 30 -57 52 -32 21 -69 51 -82
65 -24 25 -41 33 -41 19z"/>
<path d="M1870 3088 c0 -4 7 -8 15 -8 8 0 15 4 15 8 0 5 -7 9 -15 9 -8 0 -15
-4 -15 -9z"/>
<path d="M1332 3034 c-54 -57 -59 -64 -42 -64 18 0 109 96 102 107 -5 7 -28
-10 -60 -43z"/>
<path d="M1818 3083 c6 -2 18 -2 25 0 6 3 1 5 -13 5 -14 0 -19 -2 -12 -5z"/>
<path d="M1196 3071 c-4 -5 4 -7 16 -3 13 3 19 1 15 -6 -9 -14 41 -8 56 7 8 8
7 11 -6 11 -9 0 -17 -5 -17 -12 0 -9 -3 -9 -12 0 -14 14 -44 16 -52 3z"/>
<path d="M1310 3069 c0 -5 5 -7 10 -4 6 3 10 8 10 11 0 2 -4 4 -10 4 -5 0 -10
-5 -10 -11z"/>
<path d="M1115 3050 c3 -5 11 -10 16 -10 6 0 7 5 4 10 -3 6 -11 10 -16 10 -6
0 -7 -4 -4 -10z"/>
<path d="M1278 3043 c7 -3 16 -2 19 1 4 3 -2 6 -13 5 -11 0 -14 -3 -6 -6z"/>
<path d="M2011 3014 c0 -11 3 -14 6 -6 3 7 2 16 -1 19 -3 4 -6 -2 -5 -13z"/>
<path d="M780 2982 c0 -16 32 -12 37 5 3 7 -4 11 -16 10 -12 -1 -21 -7 -21
-15z"/>
<path d="M1610 2990 c0 -5 5 -10 10 -10 6 0 10 -6 10 -12 1 -17 29 -49 63 -71
18 -11 27 -26 27 -43 0 -42 -17 -62 -61 -69 -26 -5 -37 -11 -31 -17 6 -6 24
-6 50 2 36 9 43 16 53 49 10 35 9 42 -12 73 -13 18 -36 45 -51 60 -15 14 -28
31 -28 37 0 6 -7 11 -15 11 -8 0 -15 -4 -15 -10z"/>
<path d="M1200 2970 c-13 -8 -12 -10 3 -10 9 0 17 5 17 10 0 12 -1 12 -20 0z"/>
<path d="M1976 2965 c4 -11 10 -24 14 -30 3 -5 7 -23 8 -38 1 -16 7 -36 12
-45 8 -13 9 -2 4 38 -3 34 -13 63 -25 75 -20 20 -20 20 -13 0z"/>
<path d="M1413 2930 c-56 -53 -63 -69 -53 -115 10 -47 22 -55 80 -55 33 0 41
3 30 10 -8 5 -29 10 -47 10 -34 0 -53 21 -53 60 0 21 72 100 91 100 5 0 9 7 9
15 0 23 -11 18 -57 -25z"/>
<path d="M1165 2940 c-3 -6 1 -7 9 -4 18 7 21 14 7 14 -6 0 -13 -4 -16 -10z"/>
<path d="M865 2930 c-3 -5 1 -10 10 -10 9 0 13 5 10 10 -3 6 -8 10 -10 10 -2
0 -7 -4 -10 -10z"/>
<path d="M1021 2924 c0 -11 3 -14 6 -6 3 7 2 16 -1 19 -3 4 -6 -2 -5 -13z"/>
<path d="M894 2910 c-6 -14 -8 -34 -4 -45 7 -18 9 -18 15 -3 3 9 5 29 3 44
l-3 29 -11 -25z"/>
<path d="M922 2850 c0 -19 2 -27 5 -17 2 9 2 25 0 35 -3 9 -5 1 -5 -18z"/>
<path d="M1025 2849 c-4 -6 -5 -12 -2 -15 2 -3 7 2 10 11 7 17 1 20 -8 4z"/>
<path d="M1635 2838 c-11 -6 -30 -19 -41 -30 -26 -23 -60 -19 -102 12 -31 23
-62 24 -69 3 -3 -8 10 -15 36 -19 22 -3 42 -13 45 -20 7 -18 82 -19 93 -1 4 7
27 19 51 26 25 7 42 17 39 24 -5 16 -28 19 -52 5z"/>
<path d="M890 2821 c0 -10 8 -25 17 -32 15 -12 16 -12 10 4 -4 10 -7 25 -7 33
0 8 -4 14 -10 14 -5 0 -10 -8 -10 -19z"/>
<path d="M1540 2819 c0 -5 5 -7 10 -4 6 3 10 8 10 11 0 2 -4 4 -10 4 -5 0 -10
-5 -10 -11z"/>
<path d="M2013 2792 c4 -45 12 -61 25 -47 4 4 2 10 -4 12 -7 2 -10 12 -7 23 3
10 0 27 -6 37 -9 15 -11 10 -8 -25z"/>
<path d="M931 2793 c-1 -12 4 -25 9 -28 12 -7 12 2 0 30 -8 19 -9 19 -9 -2z"/>
<path d="M844 2793 c4 -6 2 -14 -4 -18 -17 -10 -11 -25 10 -25 24 0 25 10 4
36 -8 10 -13 14 -10 7z"/>
<path d="M1280 2779 c0 -5 5 -7 10 -4 6 3 10 8 10 11 0 2 -4 4 -10 4 -5 0 -10
-5 -10 -11z"/>
<path d="M880 2764 c0 -4 8 -13 18 -20 16 -12 15 -13 -8 -23 l-25 -10 28 2
c24 1 27 5 25 27 -2 14 -10 26 -20 28 -10 2 -18 0 -18 -4z"/>
<path d="M1130 2740 c6 -11 13 -20 16 -20 2 0 0 9 -6 20 -6 11 -13 20 -16 20
-2 0 0 -9 6 -20z"/>
<path d="M1470 2740 c0 -13 18 -22 24 -11 3 5 -1 11 -9 15 -8 3 -15 1 -15 -4z"/>
<path d="M826 2693 c11 -62 22 -83 50 -95 20 -9 30 -9 45 0 24 16 42 15 36 0
-2 -7 4 -40 13 -73 36 -127 42 -184 31 -305 -10 -119 -34 -217 -58 -236 -19
-16 -16 -24 9 -21 17 3 27 18 44 70 30 88 35 123 35 252 1 111 -1 132 -20 194
-6 19 -9 37 -6 39 2 3 0 13 -6 24 -6 11 -13 32 -15 46 -6 30 -11 37 -27 37 -6
0 -15 17 -20 38 -5 20 -13 37 -18 37 -12 0 -11 -17 1 -25 6 -3 10 -17 10 -31
0 -13 -4 -25 -10 -25 -25 -4 -30 -3 -32 6 -3 15 -22 33 -30 29 -4 -3 -6 11 -4
30 1 23 -3 37 -12 41 -22 8 -23 7 -16 -32z"/>
<path d="M1508 2707 c-7 -8 -19 -12 -26 -9 -6 2 -12 -1 -12 -6 0 -6 -9 -8 -20
-5 -12 3 -20 0 -20 -7 0 -7 -8 -9 -19 -5 -14 4 -21 0 -26 -15 -3 -11 -13 -20
-20 -20 -8 0 -20 -9 -28 -21 -11 -15 -16 -17 -21 -7 -3 7 -3 2 0 -11 4 -16 3
-21 -5 -17 -6 4 -11 0 -11 -9 0 -9 -4 -14 -9 -11 -5 3 -11 -1 -15 -9 -9 -25 3
-17 60 34 54 50 139 88 179 82 11 -1 52 -3 90 -4 55 -2 83 -8 130 -31 33 -17
65 -30 71 -31 7 0 21 -11 33 -25 11 -14 20 -20 21 -14 0 17 -40 65 -50 59 -5
-3 -11 -1 -15 5 -9 15 -85 50 -85 39 0 -6 -10 -1 -22 11 -12 11 -24 16 -28 10
-3 -5 -13 -1 -23 10 -9 11 -24 20 -33 20 -14 0 -14 -1 0 -16 20 -20 21 -30 1
-14 -10 9 -15 9 -15 1 0 -6 -16 -11 -36 -11 -31 0 -35 3 -29 20 7 23 2 25 -17
7z"/>
<path d="M1480 2632 c0 -5 7 -9 15 -9 8 0 12 4 9 9 -3 4 -9 8 -15 8 -5 0 -9
-4 -9 -8z"/>
<path d="M1531 2624 c0 -11 3 -14 6 -6 3 7 2 16 -1 19 -3 4 -6 -2 -5 -13z"/>
<path d="M1590 2625 c0 -16 6 -20 25 -20 32 2 41 10 13 12 -12 1 -25 8 -29 15
-6 9 -9 7 -9 -7z"/>
<path d="M1660 2630 c0 -4 11 -10 25 -12 13 -3 22 -2 20 2 -7 11 -45 20 -45
10z"/>
<path d="M1436 2615 c4 -8 8 -15 10 -15 2 0 4 7 4 15 0 8 -4 15 -10 15 -5 0
-7 -7 -4 -15z"/>
<path d="M1080 2610 c0 -5 5 -10 11 -10 5 0 7 5 4 10 -3 6 -8 10 -11 10 -2 0
-4 -4 -4 -10z"/>
<path d="M1136 2605 c-3 -8 -1 -15 4 -15 6 0 10 7 10 15 0 8 -2 15 -4 15 -2 0
-6 -7 -10 -15z"/>
<path d="M1369 2578 c-12 -23 -12 -23 10 -4 23 21 26 26 11 26 -5 0 -15 -10
-21 -22z"/>
<path d="M1530 2589 c0 -5 -7 -5 -17 -2 -9 4 -14 2 -11 -3 3 -5 -7 -9 -23 -10
-16 -1 -29 4 -29 10 0 6 -5 3 -11 -6 -5 -10 -16 -18 -24 -18 -8 0 -22 -11 -31
-25 -9 -14 -21 -22 -26 -19 -6 4 -5 10 3 15 11 7 11 9 -2 9 -9 0 -21 -11 -27
-25 -16 -35 -15 -38 11 -31 17 4 30 -1 47 -19 13 -13 27 -22 32 -19 5 3 20 -2
35 -11 21 -14 27 -15 34 -4 7 11 9 11 9 1 0 -7 5 -10 12 -6 6 4 17 -1 25 -11
7 -11 13 -14 13 -9 0 5 9 10 20 11 11 1 20 -3 20 -8 0 -6 7 -3 16 6 19 18 29
13 21 -10 -4 -8 -18 -15 -34 -15 -21 0 -25 -3 -13 -10 10 -6 22 -4 37 5 16 11
23 12 27 2 3 -6 3 -2 0 11 -5 22 3 27 45 24 7 0 35 22 61 49 26 27 52 49 58
49 5 0 12 7 15 15 5 11 1 12 -18 5 -14 -5 -25 -6 -25 -2 0 4 -4 1 -9 -7 -7
-11 -13 -10 -31 7 -13 12 -36 24 -51 27 -17 4 -26 11 -23 17 4 6 2 8 -3 5 -6
-4 -39 -3 -72 1 -34 5 -61 5 -61 1z m20 -41 c0 -4 5 -8 11 -8 5 0 7 5 4 10 -8
13 68 7 108 -9 15 -6 27 -8 27 -6 0 3 11 -2 25 -11 14 -9 25 -20 25 -25 0 -18
-80 -48 -144 -55 l-66 -7 0 37 c0 32 -3 36 -27 37 -16 0 -44 1 -65 3 -33 3
-35 1 -25 -15 8 -13 13 -15 19 -6 4 7 8 8 8 3 0 -5 7 -3 15 4 11 9 15 9 15 1
0 -7 9 -9 25 -5 22 5 25 3 25 -21 0 -25 -2 -26 -37 -20 -21 3 -49 8 -62 10
-26 4 -64 35 -43 35 7 0 11 3 11 8 -3 19 2 28 19 29 46 5 83 11 87 15 7 7 45
4 45 -4z"/>
<path d="M1555 2510 c3 -5 8 -10 11 -10 2 0 4 5 4 10 0 6 -5 10 -11 10 -5 0
-7 -4 -4 -10z"/>
<path d="M1621 2511 c-9 -6 -10 -11 -2 -15 13 -8 31 1 31 15 0 11 -11 11 -29
0z"/>
<path d="M1660 2509 c0 -5 14 -9 32 -9 36 0 31 12 -7 16 -14 1 -25 -2 -25 -7z"/>
<path d="M1580 2475 c0 -14 4 -25 9 -25 5 0 9 11 9 25 0 14 -4 25 -9 25 -5 0
-9 -11 -9 -25z"/>
<path d="M1725 2590 c-3 -5 -1 -10 4 -10 6 0 11 5 11 10 0 6 -2 10 -4 10 -3 0
-8 -4 -11 -10z"/>
<path d="M1766 2562 c-3 -5 1 -9 9 -9 8 0 15 4 15 9 0 4 -4 8 -9 8 -6 0 -12
-4 -15 -8z"/>
<path d="M1813 2445 c-3 -9 -3 -18 -1 -21 3 -3 8 4 11 16 6 23 -1 27 -10 5z"/>
<path d="M1936 2452 c-3 -5 1 -9 9 -9 8 0 12 4 9 9 -3 4 -7 8 -9 8 -2 0 -6 -4
-9 -8z"/>
<path d="M1680 2400 c6 -11 12 -20 14 -20 2 0 2 9 -1 20 -3 11 -9 20 -15 20
-5 0 -4 -9 2 -20z"/>
<path d="M1785 2409 c-10 -15 3 -25 16 -12 7 7 7 13 1 17 -6 3 -14 1 -17 -5z"/>
<path d="M1386 2375 c6 -14 79 -54 114 -61 115 -26 228 -5 254 47 12 23 12 27
0 22 -8 -3 -14 -12 -14 -21 0 -8 -3 -13 -6 -9 -4 3 -19 0 -35 -8 -48 -25 -216
-14 -256 17 -7 5 -17 7 -23 3 -5 -3 -10 1 -10 9 0 9 -7 16 -15 16 -9 0 -12 -6
-9 -15z"/>
<path d="M1076 2247 c3 -10 9 -15 12 -12 3 3 0 11 -7 18 -10 9 -11 8 -5 -6z"/>
<path d="M1660 2220 c-9 -6 -10 -10 -3 -10 6 0 15 5 18 10 8 12 4 12 -15 0z"/>
<path d="M1460 2206 c0 -2 8 -10 18 -17 15 -13 16 -12 3 4 -13 16 -21 21 -21
13z"/>
<path d="M1849 2193 c-13 -17 -13 -17 6 -3 11 8 22 16 24 17 2 2 0 3 -6 3 -6
0 -17 -8 -24 -17z"/>
<path d="M1550 2189 c0 -5 5 -7 10 -4 6 3 10 8 10 11 0 2 -4 4 -10 4 -5 0 -10
-5 -10 -11z"/>
<path d="M1620 2180 c0 -5 5 -10 11 -10 5 0 7 5 4 10 -3 6 -8 10 -11 10 -2 0
-4 -4 -4 -10z"/>
<path d="M1680 2160 c-8 -5 -11 -12 -7 -16 4 -4 13 -2 19 4 15 15 7 24 -12 12z"/>
<path d="M1787 2130 c-23 -24 -43 -37 -52 -34 -8 4 -15 1 -15 -5 0 -7 -10 -16
-22 -21 -23 -9 -23 -9 2 -9 14 -1 52 15 85 35 33 19 49 32 35 28 l-25 -6 24
26 c14 14 20 26 15 26 -5 0 -26 -18 -47 -40z m13 -14 c0 -3 -4 -8 -10 -11 -5
-3 -10 -1 -10 4 0 6 5 11 10 11 6 0 10 -2 10 -4z"/>
<path d="M1194 2141 c18 -19 61 -37 50 -20 -3 5 -12 9 -20 9 -8 0 -17 7 -20
15 -4 8 -11 15 -17 15 -5 0 -2 -9 7 -19z"/>
<path d="M1322 2151 c-11 -7 -11 -9 2 -14 10 -4 16 -1 16 8 0 17 -1 17 -18 6z"/>
<path d="M1476 2147 c3 -10 9 -15 12 -12 3 3 0 11 -7 18 -10 9 -11 8 -5 -6z"/>
<path d="M1565 2143 c-18 -14 -18 -15 -2 -9 10 3 23 6 28 6 5 0 9 5 9 10 0 14
-12 12 -35 -7z"/>
<path d="M1845 2150 c-3 -5 -1 -10 4 -10 6 0 11 5 11 10 0 6 -2 10 -4 10 -3 0
-8 -4 -11 -10z"/>
<path d="M1709 2123 c-13 -16 -12 -17 4 -4 9 7 17 15 17 17 0 8 -8 3 -21 -13z"/>
<path d="M1260 2101 c0 -5 7 -12 16 -15 24 -9 28 -7 14 9 -14 17 -30 20 -30 6z"/>
<path d="M1390 2100 c0 -12 28 -21 35 -11 2 5 -4 11 -15 14 -11 3 -20 2 -20
-3z"/>
<path d="M1525 2100 c3 -5 11 -10 16 -10 6 0 7 5 4 10 -3 6 -11 10 -16 10 -6
0 -7 -4 -4 -10z"/>
<path d="M1570 2100 c20 -13 33 -13 25 0 -3 6 -14 10 -23 10 -15 0 -15 -2 -2
-10z"/>
<path d="M1662 2094 c-25 -18 -127 -35 -139 -23 -15 13 -53 21 -53 10 0 -6 7
-11 15 -11 8 0 15 -4 15 -10 0 -5 7 -7 15 -4 8 4 15 1 15 -5 0 -8 18 -9 58 -6
31 4 63 7 70 7 8 1 9 5 3 11 -6 6 -2 16 12 28 27 23 20 25 -11 3z m-15 -30
c-3 -3 -12 -4 -19 -1 -8 3 -5 6 6 6 11 1 17 -2 13 -5z"/>
<path d="M1310 2076 c0 -2 7 -7 16 -10 8 -3 12 -2 9 4 -6 10 -25 14 -25 6z"/>
<path d="M1237 2029 c7 -7 15 -10 18 -7 3 3 -2 9 -12 12 -14 6 -15 5 -6 -5z"/>
<path d="M1405 2020 c3 -5 8 -10 11 -10 2 0 4 5 4 10 0 6 -5 10 -11 10 -5 0
-7 -4 -4 -10z"/>
<path d="M1497 1986 c-4 -10 -1 -13 8 -9 8 3 12 9 9 14 -7 12 -11 11 -17 -5z"/>
<path d="M1889 1963 c-13 -16 -12 -17 4 -4 9 7 17 15 17 17 0 8 -8 3 -21 -13z"/>
<path d="M1335 1960 c3 -5 8 -10 11 -10 2 0 4 5 4 10 0 6 -5 10 -11 10 -5 0
-7 -4 -4 -10z"/>
<path d="M1560 1960 c0 -5 5 -10 11 -10 5 0 7 5 4 10 -3 6 -8 10 -11 10 -2 0
-4 -4 -4 -10z"/>
<path d="M896 1951 c-4 -5 -2 -12 4 -16 21 -13 9 -24 -16 -13 -23 11 -28 9
-50 -19 -19 -25 -33 -32 -77 -37 -29 -4 -69 -17 -88 -28 -19 -12 -44 -23 -56
-24 -12 -1 -51 -16 -87 -33 -35 -17 -86 -36 -113 -41 -26 -5 -73 -17 -103 -25
-30 -9 -98 -22 -150 -30 -118 -19 -160 -32 -160 -51 0 -11 6 -13 23 -8 12 4
33 8 47 8 14 1 27 4 30 8 3 4 37 12 75 17 39 5 97 17 130 26 33 9 83 21 111
26 28 5 64 16 80 24 16 8 34 15 39 15 6 0 17 6 24 13 6 6 15 12 19 13 28 3 74
19 113 40 26 13 60 24 76 24 17 0 46 11 66 24 l35 24 33 -24 c18 -13 30 -24
26 -24 -9 0 54 -56 107 -95 52 -38 223 -125 246 -125 10 0 31 -5 47 -11 15 -7
35 -13 43 -14 61 -10 96 -18 102 -21 14 -9 124 -25 209 -30 88 -6 226 9 243
26 6 6 16 10 23 10 8 0 26 11 41 25 28 26 21 36 -7 11 -49 -43 -177 -61 -336
-47 -237 23 -458 95 -616 202 -83 56 -110 93 -107 142 3 38 -12 61 -26 38z
m14 -61 c0 -5 -4 -10 -10 -10 -5 0 -10 5 -10 10 0 6 5 10 10 10 6 0 10 -4 10
-10z"/>
<path d="M1180 1956 c0 -2 7 -7 16 -10 8 -3 12 -2 9 4 -6 10 -25 14 -25 6z"/>
<path d="M1427 1949 c7 -7 15 -10 18 -7 3 3 -2 9 -12 12 -14 6 -15 5 -6 -5z"/>
<path d="M1487 1949 c7 -7 15 -10 18 -7 3 3 -2 9 -12 12 -14 6 -15 5 -6 -5z"/>
<path d="M1326 1935 c10 -8 23 -15 28 -15 6 0 1 7 -10 15 -10 8 -23 15 -28 15
-6 0 -1 -7 10 -15z"/>
<path d="M1160 1930 c8 -5 20 -10 25 -10 6 0 3 5 -5 10 -8 5 -19 10 -25 10 -5
0 -3 -5 5 -10z"/>
<path d="M1376 1918 c3 -5 10 -6 15 -3 13 9 11 12 -6 12 -8 0 -12 -4 -9 -9z"/>
<path d="M1214 1909 c1 -7 10 -13 19 -15 9 -1 15 2 11 7 -3 5 -9 7 -14 4 -4
-3 -11 0 -13 5 -3 6 -4 5 -3 -1z"/>
<path d="M1100 1901 c0 -6 4 -13 10 -16 6 -3 7 1 4 9 -7 18 -14 21 -14 7z"/>
<path d="M1500 1900 c0 -5 5 -10 11 -10 5 0 7 5 4 10 -3 6 -8 10 -11 10 -2 0
-4 -4 -4 -10z"/>
<path d="M1696 1902 c-9 -15 26 -25 38 -11 8 9 7 10 -3 4 -7 -4 -16 -2 -21 5
-5 8 -10 8 -14 2z"/>
<path d="M1298 1883 c7 -3 16 -2 19 1 4 3 -2 6 -13 5 -11 0 -14 -3 -6 -6z"/>
<path d="M1513 1879 c-31 -11 -29 -17 3 -11 14 2 29 0 33 -6 4 -6 11 -5 19 4
7 8 9 14 5 15 -4 0 -15 2 -23 3 -8 2 -25 0 -37 -5z"/>
<path d="M1470 1846 c0 -2 7 -7 16 -10 8 -3 12 -2 9 4 -6 10 -25 14 -25 6z"/>
<path d="M1775 1840 c3 -5 11 -10 16 -10 6 0 7 5 4 10 -3 6 -11 10 -16 10 -6
0 -7 -4 -4 -10z"/>
<path d="M1417 1829 c7 -7 15 -10 18 -7 3 3 -2 9 -12 12 -14 6 -15 5 -6 -5z"/>
<path d="M1276 1817 c3 -10 9 -15 12 -12 3 3 0 11 -7 18 -10 9 -11 8 -5 -6z"/>
<path d="M1388 1783 c7 -3 16 -2 19 1 4 3 -2 6 -13 5 -11 0 -14 -3 -6 -6z"/>
<path d="M1656 1765 c-16 -12 -17 -15 -4 -15 9 0 18 7 22 15 7 18 6 18 -18 0z"/>
<path d="M1430 1766 c0 -2 9 -6 20 -9 11 -3 18 -1 14 4 -5 9 -34 13 -34 5z"/>
<path d="M1614 1705 c-3 -8 -4 -20 -1 -27 4 -9 6 -7 6 4 1 9 9 18 19 20 16 3
16 4 -1 11 -11 4 -20 1 -23 -8z"/>
<path d="M2309 599 c-12 -12 -30 -40 -40 -63 -11 -22 -24 -48 -29 -56 -5 -8
-11 -22 -14 -30 -3 -8 -19 -37 -35 -65 -17 -27 -40 -68 -52 -89 -11 -21 -36
-61 -55 -87 -19 -27 -34 -53 -34 -58 0 -5 -4 -11 -9 -13 -11 -4 4 -117 18
-131 18 -18 20 -5 9 56 -8 47 -7 61 4 75 21 25 196 330 233 407 26 52 30 55
72 42 31 -10 40 -20 65 -77 39 -85 83 -244 97 -350 20 -151 22 -160 36 -160 9
0 12 8 9 22 -2 13 -6 46 -9 73 -8 88 -34 220 -50 258 -8 20 -15 43 -15 51 0
15 -35 99 -68 163 -26 52 -96 69 -133 32z"/>
<path d="M2358 529 c9 -23 18 -37 20 -31 3 10 -24 72 -32 72 -3 0 3 -19 12
-41z"/>
<path d="M2396 464 c-3 -9 -1 -12 5 -9 5 4 15 2 22 -4 7 -5 19 -6 26 -2 9 6 4
11 -17 19 -25 8 -32 8 -36 -4z"/>
<path d="M2246 402 c-13 -29 -15 -44 -7 -65 12 -32 31 -36 31 -6 0 11 4 18 9
15 5 -3 12 1 15 10 8 22 8 24 -6 22 -8 -2 -12 5 -10 16 2 12 -1 15 -8 11 -9
-5 -10 -1 -5 14 10 34 -1 24 -19 -17z m17 -58 c-5 -15 -7 -15 -15 0 -5 9 -6
26 -2 39 l7 22 8 -23 c5 -12 6 -29 2 -38z"/>
<path d="M2446 428 c5 -7 2 -9 -9 -5 -8 3 -18 0 -21 -8 -3 -10 0 -12 11 -8 12
5 15 2 10 -10 -5 -13 -1 -17 18 -17 25 0 33 14 16 24 -5 4 -12 0 -15 -6 -3 -7
-4 -1 -1 15 3 16 1 27 -5 27 -6 0 -8 -5 -4 -12z"/>
<path d="M2321 402 c-14 -27 -14 -43 0 -18 10 17 13 15 30 -20 11 -23 16 -28
13 -14 -4 14 -12 36 -19 49 -12 25 -12 25 -24 3z"/>
<path d="M2865 400 c-3 -5 -1 -10 4 -10 6 0 11 5 11 10 0 6 -2 10 -4 10 -3 0
-8 -4 -11 -10z"/>
<path d="M2440 352 c0 -10 6 -27 14 -37 8 -11 12 -25 9 -32 -3 -8 3 -13 15
-13 32 0 35 17 7 36 -29 19 -35 50 -7 40 14 -5 14 -4 -2 9 -26 20 -36 19 -36
-3z"/>
<path d="M2210 333 c0 -12 4 -33 10 -47 6 -16 6 -27 0 -31 -6 -4 -14 5 -20 19
-12 33 -24 34 -16 1 5 -19 3 -23 -9 -19 -10 4 -15 0 -15 -10 0 -9 -4 -16 -9
-16 -17 0 -22 -37 -10 -64 7 -14 16 -26 21 -26 11 0 10 18 -2 25 -6 4 -8 11
-5 16 4 5 1 9 -4 9 -6 0 -11 5 -11 11 0 5 4 8 9 5 5 -3 11 4 14 15 3 12 10 18
16 14 6 -3 11 -1 11 5 0 6 5 8 10 5 6 -3 10 -11 10 -16 0 -6 -4 -7 -10 -4 -5
3 -10 1 -10 -5 0 -6 -4 -8 -10 -5 -16 10 -12 -31 4 -44 11 -9 16 -9 22 0 4 8
3 9 -4 5 -20 -12 -13 14 12 47 34 46 39 77 16 107 -19 24 -20 25 -20 3z m25
-23 c3 -5 1 -10 -4 -10 -6 0 -11 5 -11 10 0 6 2 10 4 10 3 0 8 -4 11 -10z"/>
<path d="M2345 278 c-11 -23 -41 -75 -67 -115 -27 -39 -48 -77 -48 -82 0 -12
48 -26 57 -17 4 3 -3 6 -15 6 -32 0 -33 12 -6 58 30 49 47 52 132 21 99 -37
118 -36 91 1 -9 13 -10 12 -5 -3 5 -15 2 -17 -17 -12 -35 11 -53 38 -73 114
-10 39 -20 71 -23 71 -3 0 -15 -19 -26 -42z m30 -66 c3 -15 -1 -20 -15 -19
-18 1 -20 12 -6 35 10 16 15 12 21 -16z"/>
<path d="M2715 260 c-3 -5 -1 -10 4 -10 6 0 11 5 11 10 0 6 -2 10 -4 10 -3 0
-8 -4 -11 -10z"/>
<path d="M2470 246 c0 -8 5 -18 12 -22 8 -5 9 -2 5 10 -5 12 -3 16 5 14 19 -7
22 -38 4 -38 -16 0 -22 -25 -8 -33 13 -9 28 17 27 48 0 23 -5 31 -22 33 -15 2
-23 -2 -23 -12z"/>
<path d="M2142 88 c-39 -59 -48 -78 -20 -46 27 32 62 88 54 88 -3 0 -18 -19
-34 -42z"/>
<path d="M2305 59 c4 -5 12 -9 20 -9 8 0 51 -12 95 -26 45 -14 84 -23 87 -21
2 3 -26 14 -64 25 -111 34 -144 41 -138 31z"/>
<path d="M2260 31 c-15 -29 -13 -32 15 -21 18 7 25 6 25 -2 0 -6 3 -9 6 -6 8
8 -14 48 -26 48 -5 0 -14 -9 -20 -19z"/>
<path d="M2316 32 c-2 -4 -1 -14 5 -22 7 -12 9 -10 9 8 0 23 -5 28 -14 14z"/>
<path d="M2346 15 c-3 -8 -1 -15 4 -15 6 0 10 7 10 15 0 19 -6 19 -14 0z"/>
<path d="M2385 10 c-3 -5 -1 -10 4 -10 6 0 11 5 11 10 0 6 -2 10 -4 10 -3 0
-8 -4 -11 -10z"/>
</g>
</svg>
